<svg width="13" height="13" viewBox="0 0 13 13" fill="none" xmlns="http://www.w3.org/2000/svg">
<path d="M0.958333 12.0417C0.861111 11.9444 0.8125 11.8333 0.8125 11.7083C0.8125 11.5833 0.861111 11.4722 0.958333 11.375L11.0208 1.3125H5.25C5.11111 1.3125 4.99653 1.26736 4.90625 1.17708C4.81597 1.08681 4.77083 0.972222 4.77083 0.833334C4.77083 0.708333 4.81597 0.600694 4.90625 0.510417C4.99653 0.420139 5.11111 0.375 5.25 0.375H12.0208C12.1875 0.375 12.3299 0.434028 12.4479 0.552083C12.566 0.670139 12.625 0.8125 12.625 0.979167V7.75C12.625 7.88889 12.5799 8.00347 12.4896 8.09375C12.3993 8.18403 12.2847 8.22917 12.1458 8.22917C12.0069 8.22917 11.8958 8.18403 11.8125 8.09375C11.7292 8.00347 11.6875 7.88889 11.6875 7.75V1.97917L1.625 12.0417C1.52778 12.1389 1.41667 12.1875 1.29167 12.1875C1.16667 12.1875 1.05556 12.1389 0.958333 12.0417Z" fill="black"/>
</svg>
